<svg xmlns="http://www.w3.org/2000/svg" viewBox="0 0 860 200" width="860" height="200">
  <defs>
    <linearGradient id="bg" x1="0%" y1="0%" x2="100%" y2="100%">
      <stop offset="0%" style="stop-color:#060a14"/><stop offset="100%" style="stop-color:#0a1220"/>
    </linearGradient>
    <marker id="arr" markerWidth="8" markerHeight="8" refX="6" refY="3" orient="auto">
      <path d="M0,0 L0,6 L8,3 z" fill="#00c8ff"/>
    </marker>
    <filter id="glow"><feGaussianBlur stdDeviation="2" result="b"/><feMerge><feMergeNode in="b"/><feMergeNode in="SourceGraphic"/></feMerge></filter>
  </defs>
  <rect width="860" height="200" fill="url(#bg)" rx="12"/>

  <!-- Title -->
  <text x="430" y="28" font-family="'Courier New',monospace" font-size="12" fill="#00c8ff" text-anchor="middle" letter-spacing="4" opacity="0.8">USER FLOW</text>

  <!-- Steps -->
  <!-- Step boxes -->
  <g font-family="'Courier New',monospace" font-size="10" fill="#00c8ff">

    <!-- 1 -->
    <rect x="20" y="50" width="110" height="100" rx="8" fill="#0d2030" stroke="#00c8ff" stroke-width="1.2"/>
    <rect x="20" y="50" width="110" height="3" rx="1" fill="#00c8ff" opacity="0.7"/>
    <text x="75" y="78" text-anchor="middle" font-size="11" font-weight="bold">MESSAGE</text>
    <text x="75" y="95" text-anchor="middle" font-size="9" fill="#3a8090">Open Telegram</text>
    <text x="75" y="110" text-anchor="middle" font-size="9" fill="#3a8090">message</text>
    <text x="75" y="125" text-anchor="middle" font-size="9" fill="#3a8090">@mira_hsk_bot</text>
    <text x="75" y="140" text-anchor="middle" font-size="20">💬</text>

    <!-- arrow -->
    <line x1="130" y1="100" x2="158" y2="100" stroke="#00c8ff" stroke-width="1.5" marker-end="url(#arr)"/>

    <!-- 2 -->
    <rect x="160" y="50" width="110" height="100" rx="8" fill="#0d2030" stroke="#00c8ff" stroke-width="1.2"/>
    <rect x="160" y="50" width="110" height="3" rx="1" fill="#00c8ff" opacity="0.7"/>
    <text x="215" y="78" text-anchor="middle" font-size="11" font-weight="bold">CONNECT</text>
    <text x="215" y="95" text-anchor="middle" font-size="9" fill="#3a8090">Send wallet</text>
    <text x="215" y="110" text-anchor="middle" font-size="9" fill="#3a8090">address</text>
    <text x="215" y="125" text-anchor="middle" font-size="9" fill="#3a8090">MIRA loads</text>
    <text x="215" y="140" text-anchor="middle" font-size="9" fill="#3a8090">portfolio</text>

    <!-- arrow -->
    <line x1="270" y1="100" x2="298" y2="100" stroke="#00c8ff" stroke-width="1.5" marker-end="url(#arr)"/>

    <!-- 3 -->
    <rect x="300" y="50" width="110" height="100" rx="8" fill="#0d2030" stroke="#00c8ff" stroke-width="1.2"/>
    <rect x="300" y="50" width="110" height="3" rx="1" fill="#00c8ff" opacity="0.7"/>
    <text x="355" y="78" text-anchor="middle" font-size="11" font-weight="bold">ANALYZE</text>
    <text x="355" y="95" text-anchor="middle" font-size="9" fill="#3a8090">Ask anything</text>
    <text x="355" y="110" text-anchor="middle" font-size="9" fill="#3a8090">AWS Bedrock</text>
    <text x="355" y="125" text-anchor="middle" font-size="9" fill="#3a8090">reasons with</text>
    <text x="355" y="140" text-anchor="middle" font-size="9" fill="#3a8090">live chain data</text>

    <!-- arrow -->
    <line x1="410" y1="100" x2="438" y2="100" stroke="#00c8ff" stroke-width="1.5" marker-end="url(#arr)"/>

    <!-- 4 -->
    <rect x="440" y="50" width="110" height="100" rx="8" fill="#0d2030" stroke="#00c8ff" stroke-width="1.2"/>
    <rect x="440" y="50" width="110" height="3" rx="1" fill="#00c8ff" opacity="0.7"/>
    <text x="495" y="78" text-anchor="middle" font-size="11" font-weight="bold">EXECUTE</text>
    <text x="495" y="95" text-anchor="middle" font-size="9" fill="#3a8090">Swap quoted</text>
    <text x="495" y="110" text-anchor="middle" font-size="9" fill="#3a8090">Confirm tap</text>
    <text x="495" y="125" text-anchor="middle" font-size="9" fill="#3a8090">HyperIndex V3</text>
    <text x="495" y="140" text-anchor="middle" font-size="9" fill="#3a8090">on-chain tx</text>

    <!-- arrow -->
    <line x1="550" y1="100" x2="578" y2="100" stroke="#00c8ff" stroke-width="1.5" marker-end="url(#arr)"/>

    <!-- 5 -->
    <rect x="580" y="50" width="110" height="100" rx="8" fill="#0d2030" stroke="#b060ff" stroke-width="1.2"/>
    <rect x="580" y="50" width="110" height="3" rx="1" fill="#b060ff" opacity="0.7"/>
    <text x="635" y="78" text-anchor="middle" font-size="11" font-weight="bold" fill="#b060ff">ANCHOR</text>
    <text x="635" y="95" text-anchor="middle" font-size="9" fill="#7040a0">Action hashed</text>
    <text x="635" y="110" text-anchor="middle" font-size="9" fill="#7040a0">anchored to</text>
    <text x="635" y="125" text-anchor="middle" font-size="9" fill="#7040a0">MiraAuditLog</text>
    <text x="635" y="140" text-anchor="middle" font-size="9" fill="#7040a0">on HashKey</text>

    <!-- arrow -->
    <line x1="690" y1="100" x2="718" y2="100" stroke="#00e676" stroke-width="1.5" marker-end="url(#arr)" stroke-dasharray="4,2"/>

    <!-- 6 -->
    <rect x="720" y="50" width="110" height="100" rx="8" fill="#0d2018" stroke="#00e676" stroke-width="1.2"/>
    <rect x="720" y="50" width="110" height="3" rx="1" fill="#00e676" opacity="0.7"/>
    <text x="775" y="78" text-anchor="middle" font-size="11" font-weight="bold" fill="#00e676">VERIFY</text>
    <text x="775" y="95" text-anchor="middle" font-size="9" fill="#30a060">Anyone can</text>
    <text x="775" y="110" text-anchor="middle" font-size="9" fill="#30a060">verify on</text>
    <text x="775" y="125" text-anchor="middle" font-size="9" fill="#30a060">BlockScout</text>
    <text x="775" y="140" text-anchor="middle" font-size="9" fill="#30a060">forever</text>
  </g>

  <!-- Step numbers -->
  <g font-family="'Courier New',monospace" font-size="9" fill="#00c8ff" opacity="0.4">
    <text x="75" y="165" text-anchor="middle">01</text>
    <text x="215" y="165" text-anchor="middle">02</text>
    <text x="355" y="165" text-anchor="middle">03</text>
    <text x="495" y="165" text-anchor="middle">04</text>
    <text x="635" y="165" text-anchor="middle">05</text>
    <text x="775" y="165" text-anchor="middle">06</text>
  </g>

  <!-- Corner accents -->
  <g stroke="#00c8ff" stroke-width="1" fill="none" opacity="0.25">
    <path d="M6,6 L6,16 M6,6 L16,6"/>
    <path d="M854,6 L854,16 M854,6 L844,6"/>
    <path d="M6,194 L6,184 M6,194 L16,194"/>
    <path d="M854,194 L854,184 M854,194 L844,194"/>
  </g>
</svg>
